<mxfile host="app.diagrams.net" modified="2021-02-27T17:01:54.449Z" agent="5.0 (X11)" etag="s6Jpcnb3dOer3eGQ7aWS" version="14.4.3" type="github">
  <diagram id="prtHgNgQTEPvFCAcTncT" name="Page-1">
    <mxGraphModel dx="931" dy="534" grid="1" gridSize="10" guides="1" tooltips="1" connect="1" arrows="1" fold="1" page="1" pageScale="1" pageWidth="827" pageHeight="1169" math="0" shadow="0">
      <root>
        <mxCell id="0" />
        <mxCell id="1" parent="0" />
        <mxCell id="dNxyNK7c78bLwvsdeMH5-11" value="Estrutura Administrativa" style="swimlane;html=1;startSize=20;horizontal=1;containerType=tree;glass=0;" parent="1" vertex="1">
          <mxGeometry x="70" y="90" width="710" height="450" as="geometry" />
        </mxCell>
        <UserObject label="Carlos Silveira&lt;br&gt;&lt;i style=&quot;color: gray&quot;&gt;CEO&lt;/i&gt;&lt;br&gt;" name="Tessa Miller" position="CFO" location="Office 1" email="me@example.com" placeholders="1" id="dNxyNK7c78bLwvsdeMH5-12">
          <mxCell style="label;image=https://cdn3.iconfinder.com/data/icons/user-avatars-1/512/users-3-128.png;whiteSpace=wrap;html=1;rounded=0;glass=0;treeMoving=1;treeFolding=1;" parent="dNxyNK7c78bLwvsdeMH5-11" vertex="1">
            <mxGeometry x="260" y="50" width="180" height="70" as="geometry" />
          </mxCell>
        </UserObject>
        <mxCell id="dNxyNK7c78bLwvsdeMH5-13" value="" style="endArrow=blockThin;endFill=1;fontSize=11;edgeStyle=elbowEdgeStyle;elbow=vertical;rounded=0;" parent="dNxyNK7c78bLwvsdeMH5-11" source="dNxyNK7c78bLwvsdeMH5-12" target="dNxyNK7c78bLwvsdeMH5-14" edge="1">
          <mxGeometry relative="1" as="geometry" />
        </mxCell>
        <UserObject label="%name%&lt;br&gt;&lt;i style=&quot;color: gray&quot;&gt;%position%&lt;/i&gt;&lt;br&gt;&lt;a href=&quot;mailto:%email%&quot;&gt;Email&lt;/a&gt;" name="Edward Morrison" position="Brand Manager" location="Office 2" email="me@example.com" placeholders="1" id="dNxyNK7c78bLwvsdeMH5-14">
          <mxCell style="label;image=https://cdn3.iconfinder.com/data/icons/user-avatars-1/512/users-10-3-128.png;whiteSpace=wrap;html=1;rounded=0;glass=0;treeFolding=1;treeMoving=1;" parent="dNxyNK7c78bLwvsdeMH5-11" vertex="1">
            <mxGeometry x="40" y="180" width="180" height="80" as="geometry" />
          </mxCell>
        </UserObject>
        <mxCell id="dNxyNK7c78bLwvsdeMH5-15" value="" style="endArrow=blockThin;endFill=1;fontSize=11;edgeStyle=elbowEdgeStyle;elbow=vertical;rounded=0;" parent="dNxyNK7c78bLwvsdeMH5-11" source="dNxyNK7c78bLwvsdeMH5-12" target="dNxyNK7c78bLwvsdeMH5-16" edge="1">
          <mxGeometry relative="1" as="geometry" />
        </mxCell>
        <UserObject label="%name%&lt;br&gt;&lt;i style=&quot;color: gray&quot;&gt;%position%&lt;/i&gt;&lt;br&gt;&lt;a href=&quot;mailto:%email%&quot;&gt;Email&lt;/a&gt;" name="Evan Valet" position="HR Director" location="Office 4" email="me@example.com" placeholders="1" id="dNxyNK7c78bLwvsdeMH5-16">
          <mxCell style="label;image=https://cdn3.iconfinder.com/data/icons/user-avatars-1/512/users-9-2-128.png;whiteSpace=wrap;html=1;rounded=0;glass=0;treeFolding=1;treeMoving=1;" parent="dNxyNK7c78bLwvsdeMH5-11" vertex="1">
            <mxGeometry x="260" y="180" width="180" height="80" as="geometry" />
          </mxCell>
        </UserObject>
        <mxCell id="dNxyNK7c78bLwvsdeMH5-17" value="" style="endArrow=blockThin;endFill=1;fontSize=11;edgeStyle=elbowEdgeStyle;elbow=vertical;rounded=0;" parent="dNxyNK7c78bLwvsdeMH5-11" source="dNxyNK7c78bLwvsdeMH5-12" target="dNxyNK7c78bLwvsdeMH5-18" edge="1">
          <mxGeometry relative="1" as="geometry" />
        </mxCell>
        <UserObject label="%name%&lt;br&gt;&lt;i style=&quot;color: gray&quot;&gt;%position%&lt;/i&gt;&lt;br&gt;&lt;a href=&quot;mailto:%email%&quot;&gt;Email&lt;/a&gt;" name="Alison Donovan" position="System Admin" location="Office 3" email="me@example.com" placeholders="1" id="dNxyNK7c78bLwvsdeMH5-18">
          <mxCell style="label;image=https://cdn3.iconfinder.com/data/icons/user-avatars-1/512/users-2-128.png;whiteSpace=wrap;html=1;rounded=0;glass=0;" parent="dNxyNK7c78bLwvsdeMH5-11" vertex="1">
            <mxGeometry x="490" y="180" width="180" height="80" as="geometry" />
          </mxCell>
        </UserObject>
        <mxCell id="ps3skidrg6vPjcU391YH-1" value="Estrutura Administrativa" style="swimlane;html=1;startSize=20;horizontal=1;containerType=tree;glass=0;" vertex="1" parent="1">
          <mxGeometry x="70" y="570" width="670" height="340" as="geometry" />
        </mxCell>
        <UserObject label="Carlos Silveira&lt;br&gt;&lt;i style=&quot;color: gray&quot;&gt;CEO&lt;/i&gt;&lt;br&gt;" name="Tessa Miller" position="CFO" location="Office 1" email="me@example.com" placeholders="1" id="ps3skidrg6vPjcU391YH-2">
          <mxCell style="label;image=https://cdn3.iconfinder.com/data/icons/user-avatars-1/512/users-9-2-128.png;whiteSpace=wrap;html=1;rounded=0;glass=0;treeMoving=1;treeFolding=1;direction=east;" vertex="1" parent="ps3skidrg6vPjcU391YH-1">
            <mxGeometry x="214" y="30" width="180" height="60" as="geometry" />
          </mxCell>
        </UserObject>
        <mxCell id="ps3skidrg6vPjcU391YH-3" value="" style="endArrow=blockThin;endFill=1;fontSize=11;edgeStyle=elbowEdgeStyle;elbow=vertical;rounded=0;" edge="1" parent="ps3skidrg6vPjcU391YH-1" source="ps3skidrg6vPjcU391YH-2" target="ps3skidrg6vPjcU391YH-4">
          <mxGeometry relative="1" as="geometry">
            <Array as="points">
              <mxPoint x="304" y="115" />
            </Array>
          </mxGeometry>
        </mxCell>
        <UserObject label="&lt;span id=&quot;docs-internal-guid-93a6dfc5-7fff-ca33-a34c-662f9919d568&quot;&gt;Nilson Ramos&lt;/span&gt;&lt;br&gt;&lt;i style=&quot;color: gray&quot;&gt;Diretor de TI&lt;/i&gt;&lt;br&gt;&lt;a href=&quot;mailto:%email%&quot;&gt;&lt;/a&gt;" name="Edward Morrison" position="Brand Manager" location="Office 2" email="me@example.com" placeholders="1" id="ps3skidrg6vPjcU391YH-4">
          <mxCell style="label;image=https://cdn3.iconfinder.com/data/icons/user-avatars-1/512/users-10-3-128.png;whiteSpace=wrap;html=1;rounded=0;glass=0;treeFolding=1;treeMoving=1;" vertex="1" parent="ps3skidrg6vPjcU391YH-1">
            <mxGeometry x="34" y="140" width="180" height="80" as="geometry" />
          </mxCell>
        </UserObject>
        <mxCell id="ps3skidrg6vPjcU391YH-5" value="" style="endArrow=blockThin;endFill=1;fontSize=11;edgeStyle=elbowEdgeStyle;elbow=vertical;rounded=0;" edge="1" parent="ps3skidrg6vPjcU391YH-1" source="ps3skidrg6vPjcU391YH-2" target="ps3skidrg6vPjcU391YH-6">
          <mxGeometry relative="1" as="geometry">
            <Array as="points">
              <mxPoint x="304" y="112" />
            </Array>
          </mxGeometry>
        </mxCell>
        <UserObject label="&lt;span id=&quot;docs-internal-guid-93a6dfc5-7fff-ca33-a34c-662f9919d568&quot;&gt;Silvana Teixeira&lt;/span&gt;&lt;br&gt;&lt;i style=&quot;color: gray&quot;&gt;Diretora Comercial&lt;/i&gt;&lt;br&gt;&lt;a href=&quot;mailto:%email%&quot;&gt;&lt;/a&gt;" name="Evan Valet" position="HR Director" location="Office 4" email="me@example.com" placeholders="1" id="ps3skidrg6vPjcU391YH-6">
          <mxCell style="label;image=https://cdn3.iconfinder.com/data/icons/user-avatars-1/512/users-3-128.png;whiteSpace=wrap;html=1;rounded=0;glass=0;treeFolding=1;treeMoving=1;" vertex="1" parent="ps3skidrg6vPjcU391YH-1">
            <mxGeometry x="254" y="140" width="180" height="80" as="geometry" />
          </mxCell>
        </UserObject>
        <UserObject label="&lt;span id=&quot;docs-internal-guid-93a6dfc5-7fff-ca33-a34c-662f9919d568&quot;&gt;Gabriel Santos&lt;/span&gt;&lt;br&gt;&lt;i style=&quot;color: gray&quot;&gt;Analista&lt;/i&gt;&lt;br&gt;&lt;a href=&quot;mailto:%email%&quot;&gt;&lt;/a&gt;" name="Alison Donovan" position="System Admin" location="Office 3" email="me@example.com" placeholders="1" id="ps3skidrg6vPjcU391YH-8">
          <mxCell style="label;image=https://cdn3.iconfinder.com/data/icons/user-avatars-1/512/users-2-128.png;whiteSpace=wrap;html=1;rounded=0;glass=0;" vertex="1" parent="ps3skidrg6vPjcU391YH-1">
            <mxGeometry x="34" y="250" width="180" height="80" as="geometry" />
          </mxCell>
        </UserObject>
        <UserObject label="&lt;span id=&quot;docs-internal-guid-93a6dfc5-7fff-ca33-a34c-662f9919d568&quot;&gt;João Muller&lt;/span&gt;&lt;br&gt;&lt;i style=&quot;color: gray&quot;&gt;Diretor de Inovação&lt;/i&gt;&lt;br&gt;&lt;a href=&quot;mailto:me@example.com&quot;&gt;&lt;/a&gt;" name="Edward Morrison" position="Brand Manager" location="Office 2" email="me@example.com" placeholders="1" id="ps3skidrg6vPjcU391YH-11">
          <mxCell style="label;image=https://cdn3.iconfinder.com/data/icons/user-avatars-1/512/users-11-2-512.png;whiteSpace=wrap;html=1;rounded=0;glass=0;treeFolding=1;treeMoving=1;" vertex="1" parent="ps3skidrg6vPjcU391YH-1">
            <mxGeometry x="474" y="140" width="180" height="80" as="geometry" />
          </mxCell>
        </UserObject>
        <mxCell id="ps3skidrg6vPjcU391YH-15" value="" style="endArrow=blockThin;endFill=1;fontSize=11;edgeStyle=elbowEdgeStyle;elbow=vertical;rounded=0;entryX=0.5;entryY=0;entryDx=0;entryDy=0;" edge="1" parent="ps3skidrg6vPjcU391YH-1" target="ps3skidrg6vPjcU391YH-11">
          <mxGeometry relative="1" as="geometry">
            <mxPoint x="304" y="115" as="sourcePoint" />
            <mxPoint x="454" y="165" as="targetPoint" />
            <Array as="points">
              <mxPoint x="324" y="115" />
              <mxPoint x="504" y="115" />
              <mxPoint x="414" y="115" />
              <mxPoint x="534" y="105" />
              <mxPoint x="453.6600000000001" y="110.15999999999997" />
            </Array>
          </mxGeometry>
        </mxCell>
        <mxCell id="ps3skidrg6vPjcU391YH-16" value="" style="endArrow=classic;html=1;exitX=0.5;exitY=1;exitDx=0;exitDy=0;entryX=0.5;entryY=0;entryDx=0;entryDy=0;" edge="1" parent="ps3skidrg6vPjcU391YH-1" source="ps3skidrg6vPjcU391YH-4" target="ps3skidrg6vPjcU391YH-8">
          <mxGeometry width="50" height="50" relative="1" as="geometry">
            <mxPoint x="184" y="225" as="sourcePoint" />
            <mxPoint x="234" y="175" as="targetPoint" />
          </mxGeometry>
        </mxCell>
      </root>
    </mxGraphModel>
  </diagram>
</mxfile>
